<?xml version="1.0" encoding="UTF-8" standalone="no"?>
<svg width="675px" height="72px" viewBox="0 0 675 72" version="1.1" xmlns="http://www.w3.org/2000/svg" xmlns:xlink="http://www.w3.org/1999/xlink">
    <!-- Generator: Sketch 3.6.1 (26313) - http://www.bohemiancoding.com/sketch -->
    <title>ETA KAPPA NU</title>
    <desc>Created with Sketch.</desc>
    <defs></defs>
    <g id="Page-1" stroke="none" stroke-width="1" fill="none" fill-rule="evenodd">
        <path d="M42.95,66.75 L42.85,71 L0.45,71 L0.45,0.25 L42.85,0.25 L42.85,4.5 L5.6,4.5 L5.6,33.1 L36.6,33.1 L36.6,37.25 L5.6,37.25 L5.6,66.75 L42.95,66.75 Z M104.45,4.6 L79.6,4.6 L79.6,71 L74.45,71 L74.45,4.6 L49.45,4.6 L49.45,0.25 L104.45,0.25 L104.45,4.6 Z M154.5,45.3 L140.1,9.55 C139.599998,8.3833275 139.116669,6.9833415 138.65,5.35 C138.449999,6.150004 138.233335,6.90832975 138,7.625 C137.766665,8.34167025 137.516668,8.999997 137.25,9.6 L122.85,45.3 L154.5,45.3 Z M170.15,71 L166.2,71 C165.733331,71 165.350002,70.8750012 165.05,70.625 C164.749999,70.3749988 164.516668,70.050002 164.35,69.65 L156.05,49.1 L121.3,49.1 L113,69.65 C112.866666,70.0166685 112.633335,70.333332 112.3,70.6 C111.966665,70.866668 111.566669,71 111.1,71 L107.2,71 L136.15,0.25 L141.2,0.25 L170.15,71 Z M214.2,32.9 L218.4,32.9 C219.033337,32.9 219.583331,32.8750002 220.05,32.825 C220.516669,32.7749998 220.941665,32.683334 221.325,32.55 C221.708335,32.416666 222.058332,32.2250012 222.375,31.975 C222.691668,31.7249987 223.033331,31.4166685 223.4,31.05 L251.95,1.7 C252.450002,1.1333305 252.941664,0.750001 253.425,0.55 C253.908336,0.349999 254.48333,0.25 255.15,0.25 L259.25,0.25 L228.35,32 C227.716663,32.66667 227.158336,33.1833315 226.675,33.55 C226.191664,33.9166685 225.650003,34.2166655 225.05,34.45 C225.750003,34.650001 226.38333,34.9583313 226.95,35.375 C227.51667,35.7916687 228.08333,36.33333 228.65,37 L261.2,71 L257.05,71 C256.183329,71 255.558335,70.8916678 255.175,70.675 C254.791665,70.4583323 254.416669,70.116669 254.05,69.65 L224.15,39.05 C223.783331,38.6833315 223.441668,38.366668 223.125,38.1 C222.808332,37.833332 222.458335,37.6083342 222.075,37.425 C221.691665,37.2416657 221.241669,37.1083337 220.725,37.025 C220.208331,36.9416662 219.550004,36.9 218.75,36.9 L214.2,36.9 L214.2,71 L209.05,71 L209.05,0.25 L214.2,0.25 L214.2,32.9 Z M310.7,45.3 L296.3,9.55 C295.799998,8.3833275 295.316669,6.9833415 294.85,5.35 C294.649999,6.150004 294.433335,6.90832975 294.2,7.625 C293.966666,8.34167025 293.716668,8.999997 293.45,9.6 L279.05,45.3 L310.7,45.3 Z M326.35,71 L322.4,71 C321.933331,71 321.550002,70.8750012 321.25,70.625 C320.949998,70.3749988 320.716668,70.050002 320.55,69.65 L312.25,49.1 L277.5,49.1 L269.2,69.65 C269.066666,70.0166685 268.833335,70.333332 268.5,70.6 C268.166665,70.866668 267.766669,71 267.3,71 L263.4,71 L292.35,0.25 L297.4,0.25 L326.35,71 Z M356.4,38.4 C359.500016,38.4 362.283321,37.966671 364.75,37.1 C367.216679,36.233329 369.308325,35.033341 371.025,33.5 C372.741675,31.966659 374.058329,30.1583438 374.975,28.075 C375.891671,25.9916563 376.35,23.716679 376.35,21.25 C376.35,15.8166395 374.68335,11.633348 371.35,8.7 C368.01665,5.766652 363.033367,4.3 356.4,4.3 L343.25,4.3 L343.25,38.4 L356.4,38.4 Z M356.4,0.25 C364.700041,0.25 370.958312,2.0666485 375.175,5.7 C379.391688,9.3333515 381.5,14.516633 381.5,21.25 C381.5,24.3500155 380.916673,27.199987 379.75,29.8 C378.583328,32.400013 376.916678,34.6416572 374.75,36.525 C372.583323,38.4083427 369.950016,39.8749947 366.85,40.925 C363.749984,41.9750052 360.266686,42.5 356.4,42.5 L343.25,42.5 L343.25,71 L338.1,71 L338.1,0.25 L356.4,0.25 Z M414.2,38.4 C417.300015,38.4 420.083321,37.966671 422.55,37.1 C425.016679,36.233329 427.108325,35.033341 428.825,33.5 C430.541675,31.966659 431.858329,30.1583438 432.775,28.075 C433.691671,25.9916563 434.15,23.716679 434.15,21.25 C434.15,15.8166395 432.48335,11.633348 429.15,8.7 C425.81665,5.766652 420.833367,4.3 414.2,4.3 L401.05,4.3 L401.05,38.4 L414.2,38.4 Z M414.2,0.25 C422.500042,0.25 428.758312,2.0666485 432.975,5.7 C437.191688,9.3333515 439.3,14.516633 439.3,21.25 C439.3,24.3500155 438.716673,27.199987 437.55,29.8 C436.383328,32.400013 434.716678,34.6416572 432.55,36.525 C430.383323,38.4083427 427.750016,39.8749947 424.65,40.925 C421.549985,41.9750052 418.066686,42.5 414.2,42.5 L401.05,42.5 L401.05,71 L395.9,71 L395.9,0.25 L414.2,0.25 Z M491.85,45.3 L477.45,9.55 C476.949998,8.3833275 476.466669,6.9833415 476,5.35 C475.799999,6.150004 475.583335,6.90832975 475.35,7.625 C475.116666,8.34167025 474.866668,8.999997 474.6,9.6 L460.2,45.3 L491.85,45.3 Z M507.5,71 L503.55,71 C503.083331,71 502.700001,70.8750012 502.4,70.625 C502.099999,70.3749988 501.866668,70.050002 501.7,69.65 L493.4,49.1 L458.65,49.1 L450.35,69.65 C450.216666,70.0166685 449.983335,70.333332 449.65,70.6 C449.316665,70.866668 448.916669,71 448.45,71 L444.55,71 L473.5,0.25 L478.55,0.25 L507.5,71 Z M601,0.25 L601,71 L598.6,71 C598.166665,71 597.808335,70.9250007 597.525,70.775 C597.241665,70.6249993 596.966668,70.3666685 596.7,70 L550.75,8.6 C550.850001,9.600005 550.9,10.5499955 550.9,11.45 L550.9,71 L546.4,71 L546.4,0.25 L548.95,0.25 C549.416669,0.25 549.774999,0.30833275 550.025,0.425 C550.275001,0.54166725 550.549999,0.799998 550.85,1.2 L596.7,62.45 C596.6,61.449995 596.55,60.5000045 596.55,59.6 L596.55,0.25 L601,0.25 Z M647.8,67.35 C651.200017,67.35 654.241653,66.7583393 656.925,65.575 C659.608347,64.3916607 661.883324,62.7500105 663.75,60.65 C665.616676,58.5499895 667.041662,56.0750142 668.025,53.225 C669.008338,50.3749858 669.5,47.3000165 669.5,44 L669.5,0.25 L674.6,0.25 L674.6,44 C674.6,47.9000195 673.98334,51.5416498 672.75,54.925 C671.516661,58.3083502 669.741678,61.2583207 667.425,63.775 C665.108322,66.2916793 662.291683,68.2666595 658.975,69.7 C655.658317,71.1333405 651.933354,71.85 647.8,71.85 C643.666646,71.85 639.941683,71.1333405 636.625,69.7 C633.308317,68.2666595 630.491678,66.2916793 628.175,63.775 C625.858322,61.2583207 624.083339,58.3083502 622.85,54.925 C621.616661,51.5416498 621,47.9000195 621,44 L621,0.25 L626.15,0.25 L626.15,43.95 C626.15,47.2500165 626.641662,50.3249857 627.625,53.175 C628.608338,56.0250142 630.024991,58.4999895 631.875,60.6 C633.725009,62.7000105 635.991653,64.349994 638.675,65.55 C641.358347,66.750006 644.399983,67.35 647.8,67.35 L647.8,67.35 Z" id="ETA-KAPPA-NU" fill="#FFFFFF"></path>
    </g>
</svg>